<svg width="28" height="28" viewBox="0 0 28 28" fill="none" xmlns="http://www.w3.org/2000/svg">
<g clip-path="url(#clip0_722_483)">
<path d="M20.8293 0.394788L21.3165 1.89419C21.4677 2.3504 21.7236 2.76489 22.0637 3.1045C22.4038 3.4441 22.8187 3.69941 23.2751 3.84999L24.7745 4.33719L24.8039 4.34559C24.9195 4.3863 25.0197 4.4619 25.0905 4.56195C25.1614 4.66201 25.1994 4.78159 25.1994 4.90419C25.1994 5.02679 25.1614 5.14637 25.0905 5.24642C25.0197 5.34648 24.9195 5.42208 24.8039 5.46279L23.3045 5.94999C22.8481 6.10057 22.4332 6.35587 22.0931 6.69548C21.753 7.03509 21.4971 7.44958 21.3459 7.90579L20.8587 9.40379C20.818 9.51943 20.7424 9.61959 20.6423 9.69045C20.5423 9.7613 20.4227 9.79935 20.3001 9.79935C20.1775 9.79935 20.0579 9.7613 19.9579 9.69045C19.8578 9.61959 19.7822 9.51943 19.7415 9.40379L19.2529 7.90579C19.1029 7.44856 18.8478 7.03285 18.5081 6.69199C18.1682 6.35047 17.753 6.09345 17.2957 5.94159L15.7963 5.45439C15.6806 5.41368 15.5805 5.33808 15.5096 5.23802C15.4388 5.13797 15.4007 5.01839 15.4007 4.89579C15.4007 4.77319 15.4388 4.65361 15.5096 4.55355C15.5805 4.4535 15.6806 4.3779 15.7963 4.33719L17.2957 3.84999C17.7464 3.69534 18.1551 3.43821 18.4896 3.09884C18.8241 2.75946 19.0754 2.3471 19.2235 1.89419L19.7107 0.396188C19.7511 0.280056 19.8267 0.179384 19.9269 0.108144C20.0271 0.0369029 20.147 -0.00137329 20.27 -0.00137329C20.393 -0.00137329 20.5129 0.0369029 20.6131 0.108144C20.7133 0.179384 20.7889 0.278656 20.8293 0.394788ZM27.6963 11.4996L26.6239 11.1524C26.2985 11.0436 26.0028 10.8606 25.7603 10.6179C25.5179 10.3751 25.3352 10.0793 25.2267 9.75379L24.8767 8.68419C24.8477 8.60149 24.7937 8.52985 24.7223 8.47916C24.6508 8.42847 24.5653 8.40124 24.4777 8.40124C24.3901 8.40124 24.3046 8.42847 24.2331 8.47916C24.1616 8.52985 24.1077 8.60149 24.0787 8.68419L23.7315 9.75379C23.625 10.0772 23.4453 10.3717 23.2063 10.6143C22.9674 10.8569 22.6757 11.041 22.3539 11.1524L21.2829 11.4996C21.2008 11.5292 21.1299 11.5834 21.0798 11.6548C21.0296 11.7262 21.0027 11.8113 21.0027 11.8986C21.0027 11.9858 21.0296 12.071 21.0798 12.1424C21.1299 12.2138 21.2008 12.268 21.2829 12.2976L22.3539 12.6462C22.6803 12.755 22.9767 12.9385 23.2198 13.182C23.4628 13.4255 23.6457 13.7224 23.7539 14.049L24.1011 15.1186C24.1301 15.2013 24.184 15.2729 24.2555 15.3236C24.327 15.3743 24.4125 15.4015 24.5001 15.4015C24.5877 15.4015 24.6732 15.3743 24.7447 15.3236C24.8161 15.2729 24.8701 15.2013 24.8991 15.1186L25.2477 14.049C25.3563 13.7233 25.5392 13.4274 25.782 13.1847C26.0247 12.9419 26.3206 12.759 26.6463 12.6504L27.7173 12.3032C27.7994 12.2736 27.8703 12.2194 27.9204 12.148C27.9706 12.0766 27.9975 11.9914 27.9975 11.9042C27.9975 11.8169 27.9706 11.7318 27.9204 11.6604C27.8703 11.589 27.7994 11.5348 27.7173 11.5052L27.6963 11.4996ZM23.7581 16.646C24.2093 16.8325 24.7124 16.8514 25.1763 16.6992C25.1912 16.8467 25.1987 16.996 25.1987 17.1472C25.1983 18.1895 24.8401 19.2002 24.1839 20.01C23.5277 20.8199 22.6133 21.3799 21.5937 21.5964L21.5419 21.8554C21.3801 22.662 20.983 23.4026 20.4006 23.9836C19.8182 24.5646 19.0766 24.96 18.2696 25.1199C17.4627 25.2797 16.6264 25.1968 15.8665 24.8817C15.1066 24.5665 14.4571 24.0332 14.0001 23.3492C13.5431 24.0337 12.8935 24.5674 12.1333 24.8828C11.3731 25.1981 10.5364 25.281 9.72909 25.121C8.92177 24.961 8.18001 24.5652 7.59758 23.9837C7.01515 23.4022 6.61819 22.6611 6.45689 21.854L6.40509 21.595C5.48086 21.3995 4.64045 20.921 4.00063 20.226C3.3608 19.531 2.95331 18.654 2.83477 17.7168C2.71624 16.7796 2.89253 15.8287 3.33918 14.9963C3.78582 14.1639 4.48063 13.4912 5.32709 13.0718C4.97187 12.7441 4.68834 12.3465 4.49438 11.9039C4.30042 11.4612 4.20021 10.9832 4.20009 10.5V10.2228C4.2005 9.34961 4.50319 8.50351 5.05675 7.82822C5.6103 7.15293 6.38057 6.69011 7.23669 6.51839L7.80509 6.40639L7.98009 5.52719C8.10747 4.88753 8.41657 4.29816 8.87033 3.82967C9.3241 3.36118 9.90331 3.03343 10.5386 2.8857C11.1738 2.73796 11.8382 2.77649 12.4522 2.99668C13.0661 3.21687 13.6035 3.60938 14.0001 4.12719C14.1231 3.96675 14.2604 3.81774 14.4103 3.68199L14.3641 3.74499C14.1261 4.08099 14.0001 4.47299 14.0001 4.89439C14.0001 5.31579 14.1261 5.70779 14.3641 6.04379C14.4612 6.18099 14.5732 6.30465 14.7001 6.41479V21.0378C14.7012 21.7224 14.9566 22.3822 15.4167 22.8893C15.8767 23.3963 16.5087 23.7144 17.19 23.7819C17.8713 23.8494 18.5534 23.6614 19.104 23.2545C19.6546 22.8476 20.0344 22.2507 20.1699 21.5796L20.3141 20.8628C20.3412 20.7274 20.4078 20.603 20.5055 20.5054C20.6031 20.4077 20.7275 20.3411 20.8629 20.314L21.2703 20.2314C22.0682 20.0709 22.773 19.6078 23.2371 18.9392C23.7011 18.2705 23.8883 17.4482 23.7595 16.6446M13.3001 21.0378V6.19219C13.3012 5.69704 13.1178 5.21923 12.7858 4.8519C12.4538 4.48457 11.9968 4.25406 11.5041 4.20529C11.0114 4.15652 10.5181 4.293 10.1205 4.58811C9.72293 4.88323 9.44948 5.31583 9.35349 5.80159L9.08749 7.13719C9.06025 7.27279 8.99346 7.39728 8.89554 7.49495C8.79762 7.59262 8.67296 7.6591 8.53729 7.68599L7.51109 7.89179C6.97246 8.00005 6.48787 8.29134 6.13955 8.71621C5.79123 9.14108 5.60063 9.67338 5.60009 10.2228V10.5C5.60009 11.0569 5.82134 11.5911 6.21516 11.9849C6.60899 12.3787 7.14313 12.6 7.70009 12.6C7.88574 12.6 8.06379 12.6737 8.19506 12.805C8.32634 12.9363 8.40009 13.1143 8.40009 13.3C8.40009 13.4856 8.32634 13.6637 8.19506 13.795C8.06379 13.9262 7.88574 14 7.70009 14H7.34729C6.56789 14.0022 5.81706 14.2936 5.24016 14.8177C4.66327 15.3418 4.30136 16.0613 4.22452 16.8369C4.14767 17.6125 4.36136 18.389 4.82419 19.0161C5.28703 19.6432 5.96609 20.0762 6.72989 20.2314L7.13729 20.314C7.2727 20.3411 7.39706 20.4077 7.49471 20.5054C7.59236 20.603 7.65895 20.7274 7.68609 20.8628L7.83029 21.5796C7.96574 22.2507 8.34559 22.8476 8.89618 23.2545C9.44677 23.6614 10.1289 23.8494 10.8102 23.7819C11.4915 23.7144 12.1234 23.3963 12.5835 22.8893C13.0436 22.3822 13.2989 21.7224 13.3001 21.0378Z" fill="black"/>
<path d="M23.7581 16.646C24.2093 16.8325 24.7124 16.8514 25.1763 16.6992C25.1912 16.8467 25.1987 16.996 25.1987 17.1472C25.1983 18.1895 24.8401 19.2002 24.1839 20.01C23.5277 20.8199 22.6133 21.3799 21.5937 21.5964L21.5419 21.8554C21.3801 22.662 20.983 23.4026 20.4006 23.9836C19.8182 24.5646 19.0766 24.96 18.2696 25.1198C17.4627 25.2797 16.6264 25.1968 15.8665 24.8817C15.1066 24.5665 14.4571 24.0332 14.0001 23.3492C13.5431 24.0337 12.8935 24.5674 12.1333 24.8828C11.3731 25.1981 10.5364 25.281 9.72909 25.121C8.92177 24.961 8.18001 24.5652 7.59758 23.9837C7.01515 23.4022 6.61819 22.6611 6.45689 21.854L6.40509 21.595C5.48086 21.3995 4.64045 20.921 4.00063 20.226C3.3608 19.531 2.95331 18.654 2.83477 17.7168C2.71624 16.7796 2.89253 15.8287 3.33918 14.9963C3.78582 14.1639 4.48063 13.4912 5.32709 13.0718C4.97187 12.7441 4.68834 12.3465 4.49438 11.9039C4.30042 11.4612 4.20021 10.9832 4.20009 10.5V10.2228C4.2005 9.34961 4.50319 8.50351 5.05675 7.82822C5.6103 7.15293 6.38057 6.69011 7.23669 6.51839L7.80509 6.40639L7.98009 5.52719C8.10747 4.88753 8.41657 4.29816 8.87033 3.82967C9.3241 3.36118 9.90331 3.03343 10.5386 2.8857C11.1738 2.73796 11.8382 2.77649 12.4522 2.99668C13.0661 3.21687 13.6035 3.60938 14.0001 4.12719C14.1231 3.96675 14.2604 3.81774 14.4103 3.68199L14.3641 3.74499C14.1261 4.08099 14.0001 4.47299 14.0001 4.89439C14.0001 5.31579 14.1261 5.70779 14.3641 6.04379C14.4612 6.18099 14.5732 6.30465 14.7001 6.41479V21.0378C14.7012 21.7224 14.9566 22.3822 15.4167 22.8893C15.8767 23.3963 16.5087 23.7144 17.19 23.7819C17.8713 23.8494 18.5534 23.6614 19.104 23.2545C19.6546 22.8476 20.0344 22.2507 20.1699 21.5796L20.3141 20.8628C20.3412 20.7274 20.4078 20.603 20.5055 20.5054C20.6031 20.4077 20.7275 20.3411 20.8629 20.314L21.2703 20.2314C22.0682 20.0709 22.773 19.6078 23.2371 18.9392C23.7011 18.2705 23.8883 17.4482 23.7595 16.6446M20.8293 0.394788L21.3165 1.89419C21.4677 2.3504 21.7236 2.76489 22.0637 3.1045C22.4038 3.4441 22.8187 3.69941 23.2751 3.84999L24.7745 4.33719L24.8039 4.34559C24.9195 4.3863 25.0197 4.4619 25.0905 4.56195C25.1614 4.66201 25.1994 4.78159 25.1994 4.90419C25.1994 5.02679 25.1614 5.14637 25.0905 5.24642C25.0197 5.34648 24.9195 5.42208 24.8039 5.46279L23.3045 5.94999C22.8481 6.10057 22.4332 6.35587 22.0931 6.69548C21.753 7.03509 21.4971 7.44958 21.3459 7.90579L20.8587 9.40379C20.818 9.51943 20.7424 9.61959 20.6423 9.69045C20.5423 9.7613 20.4227 9.79935 20.3001 9.79935C20.1775 9.79935 20.0579 9.7613 19.9579 9.69045C19.8578 9.61959 19.7822 9.51943 19.7415 9.40379L19.2529 7.90579C19.1029 7.44856 18.8478 7.03285 18.5081 6.69199C18.1682 6.35047 17.753 6.09345 17.2957 5.94159L15.7963 5.45439C15.6806 5.41368 15.5805 5.33808 15.5096 5.23802C15.4388 5.13797 15.4007 5.01839 15.4007 4.89579C15.4007 4.77319 15.4388 4.65361 15.5096 4.55355C15.5805 4.4535 15.6806 4.3779 15.7963 4.33719L17.2957 3.84999C17.7464 3.69534 18.1551 3.43821 18.4896 3.09884C18.8241 2.75946 19.0754 2.3471 19.2235 1.89419L19.7107 0.396188C19.7511 0.280056 19.8267 0.179384 19.9269 0.108144C20.0271 0.0369029 20.147 -0.00137329 20.27 -0.00137329C20.393 -0.00137329 20.5129 0.0369029 20.6131 0.108144C20.7133 0.179384 20.7889 0.278656 20.8293 0.394788ZM27.6963 11.4996L26.6239 11.1524C26.2985 11.0436 26.0028 10.8606 25.7603 10.6179C25.5179 10.3751 25.3352 10.0793 25.2267 9.75379L24.8767 8.68419C24.8477 8.60149 24.7937 8.52985 24.7223 8.47916C24.6508 8.42847 24.5653 8.40124 24.4777 8.40124C24.3901 8.40124 24.3046 8.42847 24.2331 8.47916C24.1616 8.52985 24.1077 8.60149 24.0787 8.68419L23.7315 9.75379C23.625 10.0772 23.4453 10.3717 23.2063 10.6143C22.9674 10.8569 22.6757 11.041 22.3539 11.1524L21.2829 11.4996C21.2008 11.5292 21.1299 11.5834 21.0798 11.6548C21.0296 11.7262 21.0027 11.8113 21.0027 11.8986C21.0027 11.9858 21.0296 12.071 21.0798 12.1424C21.1299 12.2138 21.2008 12.268 21.2829 12.2976L22.3539 12.6462C22.6803 12.755 22.9767 12.9385 23.2198 13.182C23.4628 13.4255 23.6457 13.7224 23.7539 14.049L24.1011 15.1186C24.1301 15.2013 24.184 15.2729 24.2555 15.3236C24.327 15.3743 24.4125 15.4015 24.5001 15.4015C24.5877 15.4015 24.6732 15.3743 24.7447 15.3236C24.8161 15.2729 24.8701 15.2013 24.8991 15.1186L25.2477 14.049C25.3563 13.7233 25.5392 13.4274 25.782 13.1847C26.0247 12.9419 26.3206 12.759 26.6463 12.6504L27.7173 12.3032C27.7994 12.2736 27.8703 12.2194 27.9204 12.148C27.9706 12.0766 27.9975 11.9914 27.9975 11.9042C27.9975 11.8169 27.9706 11.7318 27.9204 11.6604C27.8703 11.589 27.7994 11.5348 27.7173 11.5052L27.6963 11.4996ZM13.3001 21.0378V6.19219C13.3012 5.69704 13.1178 5.21923 12.7858 4.8519C12.4538 4.48457 11.9968 4.25406 11.5041 4.20529C11.0114 4.15652 10.5181 4.293 10.1205 4.58811C9.72293 4.88323 9.44948 5.31583 9.35349 5.80159L9.08749 7.13719C9.06025 7.27279 8.99346 7.39728 8.89554 7.49495C8.79762 7.59262 8.67296 7.6591 8.53729 7.68599L7.51109 7.89179C6.97246 8.00005 6.48787 8.29134 6.13955 8.71621C5.79123 9.14108 5.60063 9.67338 5.60009 10.2228V10.5C5.60009 11.0569 5.82134 11.5911 6.21516 11.9849C6.60899 12.3787 7.14313 12.6 7.70009 12.6C7.88574 12.6 8.06379 12.6737 8.19506 12.805C8.32634 12.9363 8.40009 13.1143 8.40009 13.3C8.40009 13.4856 8.32634 13.6637 8.19506 13.795C8.06379 13.9262 7.88574 14 7.70009 14H7.34729C6.56789 14.0022 5.81706 14.2936 5.24016 14.8177C4.66327 15.3418 4.30136 16.0613 4.22452 16.8369C4.14767 17.6125 4.36136 18.389 4.82419 19.0161C5.28703 19.6432 5.96609 20.0762 6.72989 20.2314L7.13729 20.314C7.2727 20.3411 7.39706 20.4077 7.49471 20.5054C7.59236 20.603 7.65895 20.7274 7.68609 20.8628L7.83029 21.5796C7.96574 22.2507 8.34559 22.8476 8.89618 23.2545C9.44677 23.6614 10.1289 23.8494 10.8102 23.7819C11.4915 23.7144 12.1234 23.3963 12.5835 22.8893C13.0436 22.3822 13.2989 21.7224 13.3001 21.0378Z" stroke="black" stroke-width="0.2"/>
</g>
<defs>
<clipPath id="clip0_722_483">
<rect width="28" height="28" fill="white"/>
</clipPath>
</defs>
</svg>
