<svg width="135" height="135" viewBox="0 0 135 135" fill="none" xmlns="http://www.w3.org/2000/svg">
<circle cx="67.5" cy="67.5" r="66" stroke="#0B0B0B" stroke-width="3"/>
<path d="M67.5 1.5C63.429 1.5 59.3979 3.20714 55.6368 6.52395C51.8757 9.84076 48.4583 14.7023 45.5797 20.831C42.7011 26.9596 40.4176 34.2354 38.8597 42.2429C37.3018 50.2504 36.5 58.8328 36.5 67.5C36.5 76.1672 37.3018 84.7496 38.8597 92.7571C40.4176 100.765 42.7011 108.04 45.5797 114.169C48.4583 120.298 51.8757 125.159 55.6368 128.476C59.3979 131.793 63.429 133.5 67.5 133.5" stroke="#0B0B0B" stroke-width="3"/>
<path opacity="0.6" d="M67.5 1.5C71.571 1.5 75.6021 3.20714 79.3632 6.52395C83.1243 9.84076 86.5417 14.7023 89.4203 20.831C92.2989 26.9596 94.5824 34.2354 96.1403 42.2429C97.6982 50.2504 98.5 58.8328 98.5 67.5C98.5 76.1672 97.6982 84.7496 96.1403 92.7571C94.5824 100.765 92.2989 108.04 89.4203 114.169C86.5417 120.298 83.1243 125.159 79.3632 128.476C75.6021 131.793 71.571 133.5 67.5 133.5" stroke="#0B0B0B" stroke-width="3" stroke-dasharray="6 6"/>
</svg>
