<svg width="24" height="24" viewBox="0 0 24 24" fill="none" xmlns="http://www.w3.org/2000/svg">
<g clip-path="url(#clip0_963_47948)">
<path d="M8.07099 12.2787C9.37101 12.0287 11.971 11.0187 11.971 8.97868M11.971 8.97868C11.971 6.93868 11.971 4.4287 11.971 3.42868C11.321 1.92869 9.21099 -0.321311 5.97099 2.67869M11.971 8.97868V17.3786M5.97099 2.67869C6.12099 4.07866 6.93099 6.90856 8.97099 7.02856M5.97099 2.67869C5.02347 3.64174 3.96978 5.09506 3.20121 6.87856M11.971 17.3786V20.8286C10.0511 24.0686 7.57104 22.8786 6.57099 21.8786M11.971 17.3786C8.79024 16.3786 2.36296 13.8986 2.09982 11.9786M3.20121 6.87856C2.55542 8.37712 2.11092 10.1088 2.09982 11.9786M3.20121 6.87856C3.42447 8.02855 4.29099 10.4186 5.97099 10.7786M6.57099 21.8786C3.23022 18.4864 2.08161 15.0465 2.09982 11.9786M6.57099 21.8786C8.97108 20.7986 8.77095 17.6286 8.3709 16.1786" stroke="#0B0B0B"/>
<path d="M15.9293 12.2787C14.6293 12.0287 12.0293 11.0187 12.0293 8.97868M12.0293 8.97868C12.0293 6.93868 12.0293 4.4287 12.0293 3.42868C12.6793 1.92869 14.7893 -0.321311 18.0293 2.67869M12.0293 8.97868V17.3786M18.0293 2.67869C17.8793 4.07866 17.0693 6.90856 15.0293 7.02856M18.0293 2.67869C18.9768 3.64174 20.0305 5.09506 20.7991 6.87856M12.0293 17.3786V20.8286C13.9492 24.0686 16.4292 22.8786 17.4293 21.8786M12.0293 17.3786C15.21 16.3786 21.6373 13.8986 21.9005 11.9786M20.7991 6.87856C21.4449 8.37712 21.8894 10.1088 21.9005 11.9786M20.7991 6.87856C20.5758 8.02855 19.7093 10.4186 18.0293 10.7786M17.4293 21.8786C20.7701 18.4864 21.9187 15.0465 21.9005 11.9786M17.4293 21.8786C15.0292 20.7986 15.2293 17.6286 15.6294 16.1786" stroke="#0B0B0B"/>
<path d="M8.55 17.4C9.1299 17.4 9.6 16.9299 9.6 16.35C9.6 15.7701 9.1299 15.3 8.55 15.3C7.9701 15.3 7.5 15.7701 7.5 16.35C7.5 16.9299 7.9701 17.4 8.55 17.4Z" fill="#0B0B0B"/>
<path d="M8.55 13.2C9.1299 13.2 9.6 12.7299 9.6 12.15C9.6 11.5701 9.1299 11.1 8.55 11.1C7.9701 11.1 7.5 11.5701 7.5 12.15C7.5 12.7299 7.9701 13.2 8.55 13.2Z" fill="#0B0B0B"/>
<path d="M5.55 11.7C6.1299 11.7 6.6 11.2299 6.6 10.65C6.6 10.0701 6.1299 9.59998 5.55 9.59998C4.9701 9.59998 4.5 10.0701 4.5 10.65C4.5 11.2299 4.9701 11.7 5.55 11.7Z" fill="#0B0B0B"/>
<path d="M8.85078 8.1C9.43068 8.1 9.90078 7.6299 9.90078 7.05C9.90078 6.4701 9.43068 6 8.85078 6C8.27088 6 7.80078 6.4701 7.80078 7.05C7.80078 7.6299 8.27088 8.1 8.85078 8.1Z" fill="#0B0B0B"/>
<path d="M5.85078 4.19998C6.43068 4.19998 6.90078 3.72987 6.90078 3.14998C6.90078 2.57008 6.43068 2.09998 5.85078 2.09998C5.27088 2.09998 4.80078 2.57008 4.80078 3.14998C4.80078 3.72987 5.27088 4.19998 5.85078 4.19998Z" fill="#0B0B0B"/>
<path d="M3.14961 8.1C3.72951 8.1 4.19961 7.6299 4.19961 7.05C4.19961 6.4701 3.72951 6 3.14961 6C2.56971 6 2.09961 6.4701 2.09961 7.05C2.09961 7.6299 2.56971 8.1 3.14961 8.1Z" fill="#0B0B0B"/>
<path d="M2.24922 13.8C2.82912 13.8 3.29922 13.3299 3.29922 12.75C3.29922 12.1701 2.82912 11.7 2.24922 11.7C1.66932 11.7 1.19922 12.1701 1.19922 12.75C1.19922 13.3299 1.66932 13.8 2.24922 13.8Z" fill="#0B0B0B"/>
<path d="M6.45039 22.8C7.03029 22.8 7.50039 22.3299 7.50039 21.75C7.50039 21.1701 7.03029 20.7 6.45039 20.7C5.87049 20.7 5.40039 21.1701 5.40039 21.75C5.40039 22.3299 5.87049 22.8 6.45039 22.8Z" fill="#0B0B0B"/>
<path d="M11.8508 21.9C12.4307 21.9 12.9008 21.4299 12.9008 20.85C12.9008 20.2701 12.4307 19.8 11.8508 19.8C11.2709 19.8 10.8008 20.2701 10.8008 20.85C10.8008 21.4299 11.2709 21.9 11.8508 21.9Z" fill="#0B0B0B"/>
<path d="M15.4504 17.4C16.0303 17.4 16.5004 16.9299 16.5004 16.35C16.5004 15.7701 16.0303 15.3 15.4504 15.3C14.8705 15.3 14.4004 15.7701 14.4004 16.35C14.4004 16.9299 14.8705 17.4 15.4504 17.4Z" fill="#0B0B0B"/>
<path d="M17.55 23.1C18.1299 23.1 18.6 22.6299 18.6 22.05C18.6 21.4701 18.1299 21 17.55 21C16.9701 21 16.5 21.4701 16.5 22.05C16.5 22.6299 16.9701 23.1 17.55 23.1Z" fill="#0B0B0B"/>
<path d="M21.7492 13.2C22.3291 13.2 22.7992 12.7299 22.7992 12.15C22.7992 11.5701 22.3291 11.1 21.7492 11.1C21.1693 11.1 20.6992 11.5701 20.6992 12.15C20.6992 12.7299 21.1693 13.2 21.7492 13.2Z" fill="#0B0B0B"/>
<path d="M15.4504 12.9C16.0303 12.9 16.5004 12.4299 16.5004 11.85C16.5004 11.2701 16.0303 10.8 15.4504 10.8C14.8705 10.8 14.4004 11.2701 14.4004 11.85C14.4004 12.4299 14.8705 12.9 15.4504 12.9Z" fill="#0B0B0B"/>
<path d="M18.4504 11.7C19.0303 11.7 19.5004 11.2299 19.5004 10.65C19.5004 10.0701 19.0303 9.59998 18.4504 9.59998C17.8705 9.59998 17.4004 10.0701 17.4004 10.65C17.4004 11.2299 17.8705 11.7 18.4504 11.7Z" fill="#0B0B0B"/>
<path d="M15.4504 8.1C16.0303 8.1 16.5004 7.6299 16.5004 7.05C16.5004 6.4701 16.0303 6 15.4504 6C14.8705 6 14.4004 6.4701 14.4004 7.05C14.4004 7.6299 14.8705 8.1 15.4504 8.1Z" fill="#0B0B0B"/>
<path d="M18.1496 4.19998C18.7295 4.19998 19.1996 3.72987 19.1996 3.14998C19.1996 2.57008 18.7295 2.09998 18.1496 2.09998C17.5697 2.09998 17.0996 2.57008 17.0996 3.14998C17.0996 3.72987 17.5697 4.19998 18.1496 4.19998Z" fill="#0B0B0B"/>
<path d="M20.8508 8.1C21.4307 8.1 21.9008 7.6299 21.9008 7.05C21.9008 6.4701 21.4307 6 20.8508 6C20.2709 6 19.8008 6.4701 19.8008 7.05C19.8008 7.6299 20.2709 8.1 20.8508 8.1Z" fill="#0B0B0B"/>
<path d="M11.8508 3.90005C12.4307 3.90005 12.9008 3.42995 12.9008 2.85005C12.9008 2.27015 12.4307 1.80005 11.8508 1.80005C11.2709 1.80005 10.8008 2.27015 10.8008 2.85005C10.8008 3.42995 11.2709 3.90005 11.8508 3.90005Z" fill="#0B0B0B"/>
</g>
<defs>
<clipPath id="clip0_963_47948">
<rect width="24" height="24" fill="white"/>
</clipPath>
</defs>
</svg>
