<svg width="10" height="16" viewBox="0 0 10 16" fill="none" xmlns="http://www.w3.org/2000/svg">
<path d="M0.264025 14.2347C0.179744 14.3089 0.113855 14.3961 0.0701198 14.4915C0.0263852 14.5868 0.00566094 14.6884 0.00913041 14.7904C0.0125999 14.8924 0.0401964 14.9928 0.0903434 15.0859C0.14049 15.1791 0.212204 15.2631 0.301393 15.3331C0.390581 15.4032 0.495498 15.458 0.61015 15.4944C0.724803 15.5308 0.846946 15.548 0.969607 15.5451C1.09227 15.5422 1.21305 15.5193 1.32504 15.4776C1.43704 15.4359 1.53806 15.3762 1.62234 15.3021L9.563 8.31072C9.72699 8.16649 9.81836 7.97553 9.81836 7.77705C9.81836 7.57856 9.72699 7.3876 9.563 7.24337L1.62234 0.251243C1.53862 0.175457 1.43762 0.114258 1.32521 0.0712021C1.2128 0.0281475 1.09122 0.00409489 0.967542 0.000441371C0.84386 -0.0032131 0.720537 0.0136059 0.604737 0.049918C0.488937 0.0862311 0.382969 0.141314 0.292986 0.211969C0.203004 0.282624 0.130802 0.367443 0.0805737 0.461497C0.0303456 0.555551 0.00309242 0.656968 0.000398297 0.759855C-0.00229678 0.862741 0.0196206 0.965048 0.0648762 1.06083C0.110133 1.15662 0.177826 1.24397 0.264023 1.31781L7.59932 7.77705L0.264025 14.2347Z" fill="#F4F4F6"/>
</svg>
