<svg width="442" height="97" viewBox="0 0 442 97" fill="none" xmlns="http://www.w3.org/2000/svg">
<g clip-path="url(#clip0_878_127)">
<path d="M47.9161 82.0557C38.1747 82.0557 30.252 74.1537 30.252 64.438V30.7324H35.3124V64.438C35.3124 71.3699 40.9659 77.0085 47.9161 77.0085C54.8664 77.0085 60.5199 71.3699 60.5199 64.438V53.7206H65.5803V64.438C65.5803 74.1537 57.6575 82.0557 47.9161 82.0557Z" fill="#F4F4F6"/>
<path d="M47.9172 97.2685C29.8339 97.2685 15.127 82.6002 15.127 64.5645V53.6579H20.1874V64.5645C20.1874 79.8164 32.6251 92.2213 47.9251 92.2213C63.2251 92.2213 75.6549 79.8164 75.6549 64.5645V38.5638H80.7153V64.5645C80.7153 82.6002 66.0084 97.2685 47.9251 97.2685H47.9172ZM116.115 29.1161H104.27V38.6584H101.06V17.3026H104.27V26.2692H116.115V17.3026H119.325V38.6584H116.115V29.1161ZM124.235 17.3026H138.618V20.118H127.446V26.3638H138.397V29.1792H127.446V35.843H138.618V38.6584H124.235V17.3026ZM150.012 30.4252H145.995V38.6584H142.785V17.3026H151.807C155.887 17.3026 158.678 19.9287 158.678 23.8639C158.678 27.7991 156.077 29.7549 153.349 30.1098L158.836 38.6584H155.112L150.004 30.4252H150.012ZM151.396 20.118H146.003V27.6099H151.396C153.705 27.6099 155.373 26.1036 155.373 23.8639C155.373 21.6242 153.705 20.118 151.396 20.118ZM167.7 20.118H161.05V17.3026H177.52V20.118H170.91V38.6584H167.7V20.118ZM181.023 17.3026H184.233V38.6584H181.023V17.3026ZM190.749 17.3026H205.132V20.118H193.959V26.3638H204.91V29.1792H193.959V35.843H205.132V38.6584H190.749V17.3026ZM217.743 17.3026H220.953V38.6584H217.743V17.3026ZM230.687 22.263V38.6584H227.477V17.3026H230.782L242.437 33.3116V17.3026H245.647V38.6584H242.532L230.687 22.263ZM250.81 32.9173C252.257 34.5182 254.566 35.9298 257.555 35.9298C261.026 35.9298 262.244 34.1712 262.244 32.6334C262.244 30.3937 259.8 29.7549 257.073 29.0451C253.641 28.1461 249.656 27.1525 249.656 22.7993C249.656 19.2742 252.771 16.719 257.231 16.719C260.536 16.719 263.137 17.7758 265.035 19.7L263.177 22.0659C261.54 20.3388 259.294 19.566 256.978 19.566C254.661 19.566 252.961 20.7804 252.961 22.5785C252.961 24.5027 255.27 25.1099 257.934 25.7803C261.437 26.7108 265.509 27.7991 265.509 32.3416C265.509 35.6695 263.2 38.7767 257.42 38.7767C253.601 38.7767 250.81 37.3966 248.976 35.3856L250.802 32.9173H250.81ZM274.373 19.8577H267.723V17.0424H284.193V19.8577H277.583V38.3981H274.373V19.8577ZM287.688 17.0345H290.899V38.3903H287.688V17.0345ZM301.075 19.8577H294.425V17.0424H310.895V19.8577H304.285V38.3981H301.075V19.8577ZM314.398 17.0345H317.64V29.9363C317.64 33.5876 319.664 35.9219 323.42 35.9219C327.176 35.9219 329.168 33.5876 329.168 29.9363V17.0345H332.41V30.0073C332.41 35.3225 329.421 38.7767 323.42 38.7767C317.419 38.7767 314.398 35.2831 314.398 30.0388V17.0345ZM342.586 19.8577H335.937V17.0424H352.407V19.8577H345.797V38.3981H342.586V19.8577ZM355.902 17.0345H370.285V19.8499H359.112V26.0957H370.063V28.9111H359.112V35.5749H370.285V38.3903H355.902V17.0345ZM382.896 17.0345H397.279V19.8499H386.107V26.0957H397.058V28.9111H386.107V38.3903H382.896V17.0345ZM410.792 16.6875C417.181 16.6875 421.577 21.3955 421.577 27.736C421.577 34.0765 417.181 38.7846 410.792 38.7846C404.403 38.7846 400.007 34.0765 400.007 27.736C400.007 21.3955 404.403 16.6875 410.792 16.6875ZM410.792 19.5344C406.198 19.5344 403.312 23.028 403.312 27.7281C403.312 32.4283 406.198 35.9219 410.792 35.9219C415.386 35.9219 418.272 32.3968 418.272 27.7281C418.272 23.0595 415.315 19.5344 410.792 19.5344ZM432.845 30.165H428.828V38.3981H425.618V17.0424H434.64C438.72 17.0424 441.511 19.6685 441.511 23.6037C441.511 27.5389 438.909 29.4947 436.181 29.8495L441.669 38.3981H437.945L432.837 30.165H432.845ZM434.228 19.8577H428.836V27.3496H434.228C436.537 27.3496 438.206 25.8434 438.206 23.6037C438.206 21.364 436.537 19.8577 434.228 19.8577ZM114.605 75.8812H104.104L102.373 80.2974H98.8381L107.346 58.9416H111.363L119.871 80.2974H116.336L114.605 75.8812ZM105.037 73.0342H113.672L109.339 61.7333L105.037 73.0342ZM122.599 58.9416H125.809V80.2974H122.599V58.9416ZM139.195 58.9416H142.406V80.2974H139.195V58.9416ZM151.348 63.9021V80.2974H148.138V58.9416H151.443L163.098 74.9506V58.9416H166.308V80.2974H163.193L151.348 63.9021ZM178.865 58.9416H188.914C192.733 58.9416 194.947 61.276 194.947 64.3831C194.947 67.0723 193.184 68.8625 191.223 69.2804C193.5 69.6353 195.366 71.9381 195.366 74.5326C195.366 77.8921 193.121 80.2974 189.167 80.2974H178.865V58.9416ZM188.306 68.0029C190.456 68.0029 191.642 66.6543 191.642 64.8957C191.642 63.1371 190.456 61.757 188.306 61.757H182.075V68.0029H188.306ZM188.464 77.482C190.709 77.482 192.061 76.2045 192.061 74.1225C192.061 72.3639 190.844 70.8261 188.464 70.8261H182.075V77.4899H188.464V77.482ZM206.729 72.0642H202.712V80.2974H199.502V58.9416H208.524C212.604 58.9416 215.395 61.5677 215.395 65.5029C215.395 69.4381 212.793 71.3939 210.066 71.7488L215.553 80.2974H211.829L206.721 72.0642H206.729ZM208.113 61.757H202.72V69.2489H208.113C210.421 69.2489 212.09 67.7426 212.09 65.5029C212.09 63.2633 210.421 61.757 208.113 61.757ZM233.051 75.8812H222.551L220.819 80.2974H217.285L225.793 58.9416H229.809L238.317 80.2974H234.783L233.051 75.8812ZM223.484 73.0342H232.118L227.785 61.7333L223.484 73.0342ZM241.045 58.9416H244.255V80.2974H241.045V58.9416ZM252.407 63.9021V80.2974H249.197V58.9416H252.502L264.157 74.9506V58.9416H267.367V80.2974H264.252L252.407 63.9021ZM295.777 70.7551H283.933V80.2974H280.722V58.9416H283.933V67.9082H295.777V58.9416H298.987V80.2974H295.777V70.7551ZM303.898 58.9416H318.28V61.757H307.108V68.0029H318.059V70.8182H307.108V77.482H318.28V80.2974H303.898V58.9416ZM336 75.8812H325.5L323.768 80.2974H320.233L328.741 58.9416H332.758L341.266 80.2974H337.732L336 75.8812ZM326.433 73.0342H335.067L330.734 61.7333L326.433 73.0342ZM343.986 58.9416H347.196V77.482H356.922V80.2974H343.986V58.9416ZM362.639 61.757H355.989V58.9416H372.459V61.757H365.849V80.2974H362.639V61.757ZM391.017 70.7551H379.172V80.2974H375.962V58.9416H379.172V67.9082H391.017V58.9416H394.227V80.2974H391.017V70.7551Z" fill="#F4F4F6"/>
<path d="M50.4553 66.5037H45.3949V32.8218C45.3949 25.8899 39.7414 20.2513 32.7911 20.2513C25.8409 20.2513 20.1874 25.8899 20.1874 32.8218V43.5391H15.127V32.8218C15.127 23.1061 23.0497 15.2041 32.7911 15.2041C42.5325 15.2041 50.4553 23.1061 50.4553 32.8218V66.5037Z" fill="#E50C7E"/>
<path d="M5.06047 58.7047H0V32.704C0 14.6683 14.707 0 32.7902 0C50.8735 0 65.5805 14.6683 65.5805 32.704V43.6106H60.52V32.704C60.52 17.4521 48.0823 5.04715 32.7823 5.04715C17.4823 5.04715 5.06047 17.4521 5.06047 32.704V58.7047Z" fill="#E50C7E"/>
</g>
<defs>
<clipPath id="clip0_878_127">
<rect width="442" height="97" fill="white"/>
</clipPath>
</defs>
</svg>
