<svg width="23" height="23" viewBox="0 0 23 23" fill="none" xmlns="http://www.w3.org/2000/svg">
<path d="M0.5 11.5C0.5 8.58262 1.65893 5.78473 3.72183 3.72183C5.78473 1.65893 8.58262 0.5 11.5 0.5C14.4174 0.5 17.2153 1.65893 19.2782 3.72183C21.3411 5.78473 22.5 8.58262 22.5 11.5V18.4988C22.5 19.6648 22.5 20.245 22.3268 20.7111C22.189 21.0805 21.9734 21.4159 21.6947 21.6947C21.4159 21.9734 21.0805 22.189 20.7111 22.3268C20.245 22.5 19.6634 22.5 18.4988 22.5H11.5C8.58262 22.5 5.78473 21.3411 3.72183 19.2782C1.65893 17.2153 0.5 14.4174 0.5 11.5Z" stroke="black"/>
<path d="M7.375 10.125H15.625M11.5 15.625H15.625" stroke="black" stroke-linecap="round" stroke-linejoin="round"/>
</svg>
