<svg width="44" height="45" viewBox="0 0 44 45" fill="none" xmlns="http://www.w3.org/2000/svg">
<g clip-path="url(#clip0_884_767)">
<path d="M14.7971 23.0226C17.1805 22.5539 21.9471 20.6601 21.9471 16.8351M21.9471 16.8351C21.9471 13.0101 21.9471 8.30391 21.9471 6.42887C20.7555 3.61638 16.8871 -0.602367 10.9471 5.02263M21.9471 16.8351V32.5849M10.9471 5.02263C11.2221 7.64758 12.7071 12.9536 16.4471 13.1786M10.9471 5.02263C9.21002 6.82836 7.27825 9.55333 5.86921 12.8974M21.9471 32.5849V39.0536C18.4273 45.1287 13.8806 42.8974 12.0471 41.0224M21.9471 32.5849C16.1158 30.7099 4.33242 26.0599 3.85 22.4599M5.86921 12.8974C4.68526 15.7072 3.87035 18.9541 3.85 22.4599M5.86921 12.8974C6.27852 15.0536 7.86714 19.5349 10.9471 20.2099M12.0471 41.0224C5.92239 34.6621 3.81661 28.2124 3.85 22.4599M12.0471 41.0224C16.4473 38.9974 16.0804 33.0536 15.347 30.3349" stroke="#9686E6" stroke-width="2"/>
<path d="M29.2027 23.0226C26.8194 22.5539 22.0527 20.6601 22.0527 16.8351M22.0527 16.8351C22.0527 13.0101 22.0527 8.30391 22.0527 6.42887C23.2444 3.61638 27.1127 -0.602367 33.0527 5.02263M22.0527 16.8351V32.5849M33.0527 5.02263C32.7777 7.64758 31.2927 12.9536 27.5527 13.1786M33.0527 5.02263C34.7899 6.82836 36.7216 9.55333 38.1307 12.8974M22.0527 32.5849V39.0536C25.5726 45.1287 30.1193 42.8974 31.9527 41.0224M22.0527 32.5849C27.8841 30.7099 39.6675 26.0599 40.1499 22.4599M38.1307 12.8974C39.3146 15.7072 40.1295 18.9541 40.1499 22.4599M38.1307 12.8974C37.7214 15.0536 36.1327 19.5349 33.0527 20.2099M31.9527 41.0224C38.0775 34.6621 40.1833 28.2124 40.1499 22.4599M31.9527 41.0224C27.5526 38.9974 27.9195 33.0536 28.6529 30.3349" stroke="#9686E6" stroke-width="2"/>
<path d="M15.675 32.625C16.7381 32.625 17.6 31.7436 17.6 30.6562C17.6 29.5689 16.7381 28.6875 15.675 28.6875C14.6119 28.6875 13.75 29.5689 13.75 30.6562C13.75 31.7436 14.6119 32.625 15.675 32.625Z" fill="#9686E6"/>
<path d="M15.675 24.75C16.7381 24.75 17.6 23.8686 17.6 22.7812C17.6 21.6939 16.7381 20.8125 15.675 20.8125C14.6119 20.8125 13.75 21.6939 13.75 22.7812C13.75 23.8686 14.6119 24.75 15.675 24.75Z" fill="#9686E6"/>
<path d="M10.175 21.9375C11.2381 21.9375 12.1 21.0561 12.1 19.9687C12.1 18.8814 11.2381 18 10.175 18C9.11185 18 8.25 18.8814 8.25 19.9687C8.25 21.0561 9.11185 21.9375 10.175 21.9375Z" fill="#9686E6"/>
<path d="M16.2258 15.1875C17.2889 15.1875 18.1508 14.3061 18.1508 13.2187C18.1508 12.1314 17.2889 11.25 16.2258 11.25C15.1626 11.25 14.3008 12.1314 14.3008 13.2187C14.3008 14.3061 15.1626 15.1875 16.2258 15.1875Z" fill="#9686E6"/>
<path d="M10.7258 7.875C11.7889 7.875 12.6508 6.99356 12.6508 5.90625C12.6508 4.81894 11.7889 3.9375 10.7258 3.9375C9.66263 3.9375 8.80078 4.81894 8.80078 5.90625C8.80078 6.99356 9.66263 7.875 10.7258 7.875Z" fill="#9686E6"/>
<path d="M5.77461 15.1875C6.83776 15.1875 7.69961 14.3061 7.69961 13.2187C7.69961 12.1314 6.83776 11.25 5.77461 11.25C4.71146 11.25 3.84961 12.1314 3.84961 13.2187C3.84961 14.3061 4.71146 15.1875 5.77461 15.1875Z" fill="#9686E6"/>
<path d="M4.12422 25.875C5.18737 25.875 6.04922 24.9936 6.04922 23.9062C6.04922 22.8189 5.18737 21.9375 4.12422 21.9375C3.06107 21.9375 2.19922 22.8189 2.19922 23.9062C2.19922 24.9936 3.06107 25.875 4.12422 25.875Z" fill="#9686E6"/>
<path d="M11.8254 42.75C12.8885 42.75 13.7504 41.8686 13.7504 40.7812C13.7504 39.6939 12.8885 38.8125 11.8254 38.8125C10.7622 38.8125 9.90039 39.6939 9.90039 40.7812C9.90039 41.8686 10.7622 42.75 11.8254 42.75Z" fill="#9686E6"/>
<path d="M21.7258 41.0625C22.7889 41.0625 23.6508 40.1811 23.6508 39.0937C23.6508 38.0064 22.7889 37.125 21.7258 37.125C20.6626 37.125 19.8008 38.0064 19.8008 39.0937C19.8008 40.1811 20.6626 41.0625 21.7258 41.0625Z" fill="#9686E6"/>
<path d="M28.3254 32.625C29.3885 32.625 30.2504 31.7436 30.2504 30.6562C30.2504 29.5689 29.3885 28.6875 28.3254 28.6875C27.2622 28.6875 26.4004 29.5689 26.4004 30.6562C26.4004 31.7436 27.2622 32.625 28.3254 32.625Z" fill="#9686E6"/>
<path d="M32.175 43.3125C33.2381 43.3125 34.1 42.4311 34.1 41.3437C34.1 40.2564 33.2381 39.375 32.175 39.375C31.1119 39.375 30.25 40.2564 30.25 41.3437C30.25 42.4311 31.1119 43.3125 32.175 43.3125Z" fill="#9686E6"/>
<path d="M39.8742 24.75C40.9374 24.75 41.7992 23.8686 41.7992 22.7812C41.7992 21.6939 40.9374 20.8125 39.8742 20.8125C38.8111 20.8125 37.9492 21.6939 37.9492 22.7812C37.9492 23.8686 38.8111 24.75 39.8742 24.75Z" fill="#9686E6"/>
<path d="M28.3254 24.1875C29.3885 24.1875 30.2504 23.3061 30.2504 22.2187C30.2504 21.1314 29.3885 20.25 28.3254 20.25C27.2622 20.25 26.4004 21.1314 26.4004 22.2187C26.4004 23.3061 27.2622 24.1875 28.3254 24.1875Z" fill="#9686E6"/>
<path d="M33.8254 21.9375C34.8885 21.9375 35.7504 21.0561 35.7504 19.9687C35.7504 18.8814 34.8885 18 33.8254 18C32.7622 18 31.9004 18.8814 31.9004 19.9687C31.9004 21.0561 32.7622 21.9375 33.8254 21.9375Z" fill="#9686E6"/>
<path d="M28.3254 15.1875C29.3885 15.1875 30.2504 14.3061 30.2504 13.2187C30.2504 12.1314 29.3885 11.25 28.3254 11.25C27.2622 11.25 26.4004 12.1314 26.4004 13.2187C26.4004 14.3061 27.2622 15.1875 28.3254 15.1875Z" fill="#9686E6"/>
<path d="M33.2746 7.875C34.3378 7.875 35.1996 6.99356 35.1996 5.90625C35.1996 4.81894 34.3378 3.9375 33.2746 3.9375C32.2115 3.9375 31.3496 4.81894 31.3496 5.90625C31.3496 6.99356 32.2115 7.875 33.2746 7.875Z" fill="#9686E6"/>
<path d="M38.2258 15.1875C39.2889 15.1875 40.1508 14.3061 40.1508 13.2187C40.1508 12.1314 39.2889 11.25 38.2258 11.25C37.1626 11.25 36.3008 12.1314 36.3008 13.2187C36.3008 14.3061 37.1626 15.1875 38.2258 15.1875Z" fill="#9686E6"/>
<path d="M21.7258 7.3125C22.7889 7.3125 23.6508 6.43106 23.6508 5.34375C23.6508 4.25644 22.7889 3.375 21.7258 3.375C20.6626 3.375 19.8008 4.25644 19.8008 5.34375C19.8008 6.43106 20.6626 7.3125 21.7258 7.3125Z" fill="#9686E6"/>
</g>
<defs>
<clipPath id="clip0_884_767">
<rect width="44" height="45" fill="white"/>
</clipPath>
</defs>
</svg>
