<svg width="132" height="125" viewBox="0 0 132 125" fill="none" xmlns="http://www.w3.org/2000/svg">
<path opacity="0.4" d="M66 1.5C84.0593 1.5 100.336 4.8698 112.042 10.2539C123.877 15.6975 130.5 22.915 130.5 30.3574C130.5 37.7997 123.877 45.0164 112.042 50.46C100.336 55.8441 84.0594 59.2139 66 59.2139C47.9406 59.2139 31.6639 55.8441 19.958 50.46C8.12311 45.0164 1.50017 37.7997 1.5 30.3574C1.5 22.915 8.12296 15.6975 19.958 10.2539C31.6638 4.8698 47.9407 1.5 66 1.5Z" stroke="#0B0B0B" stroke-width="3"/>
<path opacity="0.5" d="M66 22.9287C84.0593 22.9287 100.336 26.2985 112.042 31.6826C123.877 37.1262 130.5 44.3437 130.5 51.7861C130.5 59.2284 123.877 66.4451 112.042 71.8887C100.336 77.2728 84.0594 80.6426 66 80.6426C47.9406 80.6426 31.6639 77.2728 19.958 71.8887C8.12311 66.4451 1.50017 59.2284 1.5 51.7861C1.5 44.3437 8.12296 37.1262 19.958 31.6826C31.6638 26.2985 47.9407 22.9287 66 22.9287Z" stroke="#0B0B0B" stroke-width="3"/>
<path opacity="0.7" d="M66 44.3569C84.0593 44.3569 100.336 47.7267 112.042 53.1108C123.877 58.5544 130.5 65.772 130.5 73.2144C130.5 80.6567 123.877 87.8734 112.042 93.3169C100.336 98.701 84.0594 102.071 66 102.071C47.9406 102.071 31.6639 98.701 19.958 93.3169C8.12311 87.8734 1.50017 80.6567 1.5 73.2144C1.5 65.772 8.12296 58.5544 19.958 53.1108C31.6638 47.7267 47.9407 44.3569 66 44.3569Z" stroke="#0B0B0B" stroke-width="3"/>
<path d="M66 65.7856C84.0593 65.7856 100.336 69.1554 112.042 74.5396C123.877 79.9832 130.5 87.2007 130.5 94.6431C130.5 102.085 123.877 109.302 112.042 114.746C100.336 120.13 84.0594 123.5 66 123.5C47.9406 123.5 31.6639 120.13 19.958 114.746C8.12311 109.302 1.50017 102.085 1.5 94.6431C1.5 87.2007 8.12296 79.9832 19.958 74.5396C31.6638 69.1554 47.9407 65.7856 66 65.7856Z" stroke="#0B0B0B" stroke-width="3"/>
</svg>
