<svg width="430" height="53" viewBox="0 0 430 53" fill="none" xmlns="http://www.w3.org/2000/svg">
<path fill-rule="evenodd" clip-rule="evenodd" d="M36.1816 3.81592H17.3274V7.94038H36.1816V3.81592ZM45.3142 30.477C45.3142 40.8084 36.9389 49.1839 26.6073 49.1839C16.2757 49.1839 7.90039 40.8084 7.90039 30.477C7.90039 20.1454 16.2757 11.7702 26.6073 11.7702C36.9389 11.7702 45.3142 20.1454 45.3142 30.477ZM41.4844 30.477C41.4844 38.6935 34.8238 45.3541 26.6073 45.3541C18.3908 45.3541 11.7302 38.6935 11.7302 30.477C11.7302 22.2606 18.3908 15.5999 26.6073 15.5999C34.8238 15.5999 41.4844 22.2606 41.4844 30.477Z" fill="#2F4A73"/>
<path d="M309.975 7.00195C299.029 7.00195 290.125 15.7488 290.125 26.5002C290.125 37.2516 299.026 45.9985 309.975 45.9985C320.924 45.9985 329.828 37.2482 329.828 26.5002C329.828 15.7523 320.924 7.00195 309.975 7.00195ZM309.975 41.3844C301.613 41.3844 294.806 34.7039 294.806 26.4899C294.806 18.276 301.61 11.592 309.975 11.592C318.339 11.592 325.144 18.2828 325.144 26.5002C325.144 34.7176 318.339 41.3947 309.975 41.3947V41.3844ZM280.509 7.00195H275.664V45.9951H280.509V7.00195ZM247.175 7.00195H252.024V45.9951H247.202L247.175 7.00195ZM256.876 24.1141H270.801V28.8761H256.893L256.876 24.1141ZM388.274 7.00883H393.123V45.9985H388.274V7.00538V7.00883ZM397.968 7.00883H404.456C411.924 7.00883 418 12.9707 418 20.3045C418 27.6383 411.924 33.6002 404.456 33.6002H397.972V28.9723H404.46C405.612 28.9953 406.758 28.788 407.829 28.3626C408.901 27.9373 409.877 27.3024 410.7 26.495C411.523 25.6877 412.177 24.7242 412.623 23.661C413.07 22.5977 413.299 21.4561 413.299 20.3028C413.299 19.1495 413.07 18.0079 412.623 16.9446C412.177 15.8814 411.523 14.9179 410.7 14.1105C409.877 13.3032 408.901 12.6683 407.829 12.2429C406.758 11.8176 405.612 11.6103 404.46 11.6333H397.972L397.968 7.00883ZM338.344 26.5002C338.344 15.7454 347.244 7.00195 358.193 7.00195C369.142 7.00195 378.046 15.7488 378.046 26.5002C378.046 37.2516 369.142 45.9951 358.204 45.9951C347.265 45.9951 338.344 37.2482 338.344 26.5002ZM343.024 26.5002C343.024 34.7142 349.825 41.3947 358.193 41.3947C366.561 41.3947 373.359 34.7142 373.359 26.5002C373.359 18.2863 366.554 11.6023 358.204 11.6023C349.853 11.6023 343.024 18.2828 343.024 26.5002ZM221.246 45.9985H225.957L238.037 7.00195H233.325L223.6 38.3966L218.445 21.7383H213.733L221.249 45.9985H221.246ZM185 7.00195L192.516 31.2588H197.22L189.712 7.00195H185ZM197.08 45.9985L209.163 7.00195H213.867L201.791 45.9985H197.08Z" fill="#0B0B0B"/>
</svg>
